<?xml version="1.0" encoding="UTF-8" standalone="no"?>
<!-- Created with Inkscape (http://www.inkscape.org/) -->

<svg
   width="500"
   height="500"
   viewBox="0 0 132.29166 132.29167"
   version="1.1"
   id="svg5"
   inkscape:version="1.2.2 (732a01da63, 2022-12-09)"
   sodipodi:docname="music logo.svg"
   inkscape:export-filename="..\my-art-png\music logo big.png"
   inkscape:export-xdpi="189.53728"
   inkscape:export-ydpi="189.53728"
   xmlns:inkscape="http://www.inkscape.org/namespaces/inkscape"
   xmlns:sodipodi="http://sodipodi.sourceforge.net/DTD/sodipodi-0.dtd"
   xmlns="http://www.w3.org/2000/svg"
   xmlns:svg="http://www.w3.org/2000/svg">
  <sodipodi:namedview
     id="namedview7"
     pagecolor="#ffffff"
     bordercolor="#000000"
     borderopacity="0.25"
     inkscape:showpageshadow="2"
     inkscape:pageopacity="0"
     inkscape:pagecheckerboard="0"
     inkscape:deskcolor="#d1d1d1"
     inkscape:document-units="px"
     showgrid="false"
     showguides="true"
     inkscape:zoom="1.4324916"
     inkscape:cx="238.39582"
     inkscape:cy="261.08356"
     inkscape:window-width="1920"
     inkscape:window-height="1080"
     inkscape:window-x="0"
     inkscape:window-y="0"
     inkscape:window-maximized="1"
     inkscape:current-layer="layer1" />
  <defs
     id="defs2" />
  <g
     inkscape:label="Layer 1"
     inkscape:groupmode="layer"
     id="layer1">
    <circle
       style="fill:#ffffff;stroke:#000000;stroke-width:1.56499998;stroke-linecap:square;paint-order:fill markers stroke;stroke-dasharray:none;fill-opacity:1"
       id="circle1092"
       cx="66.145836"
       cy="66.145836"
       r="32.138058" />
    <path
       id="path2555"
       style="fill:#e8e8e8;fill-opacity:1;stroke:none;stroke-width:1.6143;stroke-linecap:square;stroke-dasharray:none;paint-order:fill markers stroke"
       d="M 52.990047 36.846329 A 32.138058 32.138058 0 0 0 43.136901 43.736348 L 43.136901 75.855834 L 52.990047 75.855834 L 52.990047 36.846329 z " />
    <path
       id="path2552"
       style="fill:#e8e8e8;fill-opacity:1;stroke:none;stroke-width:1.6143;stroke-linecap:square;stroke-dasharray:none;paint-order:fill markers stroke"
       d="M 66.145832 34.007743 A 32.138058 32.138058 0 0 0 58.467232 34.954455 L 58.467232 75.855834 L 68.320377 75.855834 L 68.320377 34.084224 A 32.138058 32.138058 0 0 0 66.145832 34.007743 z " />
    <path
       id="path289"
       style="fill:#e8e8e8;fill-opacity:1;stroke:none;stroke-width:1.6143;stroke-linecap:square;stroke-dasharray:none;paint-order:fill markers stroke"
       d="M 73.797562 34.934301 L 73.797562 75.855834 L 83.650707 75.855834 L 83.650707 39.196573 A 32.138058 32.138058 0 0 0 73.797562 34.934301 z " />
    <path
       id="path1095"
       style="fill:#000000;stroke:none;stroke-width:1.56499998;stroke-linecap:square;paint-order:fill markers stroke;stroke-dasharray:none"
       d="M 66.145832 34.007743 A 32.138058 32.138058 0 0 0 61.182828 34.39945 L 61.182828 73.921585 L 71.108837 73.921585 L 71.108837 34.393766 A 32.138058 32.138058 0 0 0 66.145832 34.007743 z " />
    <path
       id="circle1060"
       style="fill:#1a1a1a;stroke:none;stroke-width:1.56499998;stroke-linecap:square;paint-order:fill markers stroke;stroke-dasharray:none"
       d="M 76.513158 35.728051 L 76.513158 73.921585 L 86.439167 73.921585 L 86.439167 41.229007 A 32.138058 32.138058 0 0 0 76.513158 35.728051 z " />
    <rect
       style="fill:#000000;fill-rule:evenodd;stroke-width:0.264583"
       id="rect1074"
       width="1.0448294"
       height="26.120735"
       x="65.623421"
       y="72.289131" />
    <path
       id="path1080"
       style="fill:#000000;stroke:none;stroke-width:1.565;stroke-linecap:square;stroke-dasharray:none;paint-order:fill markers stroke"
       d="M 55.778507 35.748722 A 32.138058 32.138058 0 0 0 45.852498 41.239343 L 45.852498 73.921585 L 55.778507 73.921585 L 55.778507 35.748722 z " />
    <rect
       style="fill:#000000;fill-rule:evenodd;stroke-width:0.253941"
       id="rect1082"
       width="1.0448294"
       height="24.06181"
       x="80.953644"
       y="70.33007" />
    <rect
       style="fill:#000000;fill-rule:evenodd;stroke-width:0.253941"
       id="rect1084"
       width="1.0448294"
       height="24.061808"
       x="50.293194"
       y="70.33007" />
    <circle
       style="fill:none;stroke:#000000;stroke-width:2.72917705;stroke-linecap:square;paint-order:fill markers stroke;stroke-dasharray:none"
       id="circle1089"
       cx="66.145836"
       cy="66.145836"
       r="32.138058" />
  </g>
</svg>
